<?xml version="1.0" standalone="no"?>
<!DOCTYPE svg PUBLIC "-//W3C//DTD SVG 20010904//EN"
 "http://www.w3.org/TR/2001/REC-SVG-20010904/DTD/svg10.dtd">
<svg version="1.0" xmlns="http://www.w3.org/2000/svg"
 width="100%" height="100%" viewBox="0 0 1408.000000 3040.000000"
 preserveAspectRatio="xMidYMid meet">
<metadata>
Created by potrace 1.16, written by Peter Selinger 2001-2019
</metadata>
<g transform="translate(0.000000,3040.000000) scale(0.100000,-0.100000)"
fill="#009690" stroke="none">
<path d="M7315 18968 c-27 -46 -59 -103 -73 -128 -26 -48 -134 -232 -212 -365
-26 -44 -68 -116 -92 -160 -52 -92 -240 -418 -318 -550 -29 -49 -72 -124 -95
-165 -23 -41 -77 -136 -120 -210 -122 -210 -476 -827 -640 -1115 -81 -143
-155 -271 -164 -285 -18 -29 -107 -183 -353 -610 -96 -168 -207 -361 -246
-429 -40 -68 -72 -124 -72 -126 0 -1 -30 -54 -66 -116 -37 -63 -97 -168 -134
-234 -36 -66 -106 -187 -155 -270 -49 -82 -123 -211 -165 -285 -42 -74 -130
-227 -195 -340 -260 -452 -395 -689 -395 -696 0 -2 260 -4 579 -4 l579 0 249
418 c138 229 297 496 353 592 57 96 138 231 180 300 42 69 95 157 117 195 22
39 125 210 228 380 103 171 264 438 358 595 93 157 202 337 242 400 40 63 92
149 115 190 24 41 88 149 143 240 192 318 246 406 315 520 114 186 642 1061
824 1365 224 375 219 366 231 362 14 -4 48 -54 407 -600 162 -247 351 -532
419 -635 68 -103 233 -355 368 -560 134 -205 356 -543 493 -750 335 -509 397
-602 854 -1302 222 -339 394 -600 641 -973 132 -199 260 -394 284 -432 49 -77
193 -297 309 -473 45 -69 71 -117 65 -123 -5 -5 -346 -10 -823 -11 l-814 -3
-141 -296 c-77 -162 -159 -335 -182 -385 -22 -49 -86 -186 -142 -304 -55 -118
-101 -220 -101 -227 0 -7 28 -13 83 -15 163 -8 4002 -8 4015 0 9 6 -9 40 -67
128 -81 122 -369 561 -456 694 -27 41 -121 185 -210 320 -88 135 -200 306
-248 380 -49 74 -251 385 -450 690 -199 305 -394 603 -432 662 -166 256 -522
802 -591 908 -126 193 -204 313 -399 615 -104 160 -256 395 -339 522 -148 229
-588 906 -676 1042 -25 39 -83 130 -129 203 -85 133 -153 238 -315 486 -48 73
-110 170 -138 215 -28 45 -74 118 -103 162 -29 44 -114 177 -190 295 -76 118
-163 252 -193 298 l-56 82 -856 0 -857 0 -48 -82z"/>
<path d="M3396 16550 c-7 -8 -50 -73 -96 -145 -126 -196 -200 -309 -482 -740
-57 -88 -133 -205 -168 -260 -35 -55 -96 -149 -135 -210 -40 -60 -123 -189
-185 -285 -62 -96 -157 -242 -211 -325 -258 -394 -315 -482 -464 -710 -185
-284 -442 -676 -648 -990 -131 -199 -521 -795 -602 -920 -18 -27 -70 -108
-117 -180 -119 -183 -168 -258 -226 -352 l-51 -81 92 -6 c173 -11 9487 -3
9509 8 13 7 65 109 152 296 73 157 146 314 164 350 50 102 232 501 249 546
l16 41 -54 86 c-118 189 -585 923 -799 1257 -79 124 -196 307 -260 407 -63
100 -170 267 -236 370 -67 103 -186 289 -264 413 -78 124 -149 233 -158 243
-14 16 -52 17 -580 15 l-565 -3 -77 -140 c-104 -189 -410 -752 -459 -845 -4
-8 -61 -112 -126 -230 -65 -118 -150 -273 -188 -345 -39 -71 -81 -147 -94
-167 -12 -21 -23 -40 -23 -42 0 -2 -40 -76 -88 -163 -263 -472 -309 -559 -300
-568 2 -3 269 -5 592 -6 l588 -1 82 148 c90 162 239 436 361 664 43 80 94 174
114 210 19 36 74 139 122 230 48 90 91 165 95 167 5 1 25 -25 45 -60 98 -170
263 -452 364 -622 168 -283 334 -566 462 -790 64 -110 119 -204 124 -209 5 -6
9 -14 9 -18 0 -9 -6354 -11 -6363 -2 -3 4 11 32 32 63 42 64 186 292 451 721
100 162 197 318 214 345 18 28 90 142 160 255 70 113 156 250 190 305 60 95
468 753 580 935 29 47 138 222 243 390 173 277 238 383 501 817 45 75 79 139
76 142 -3 3 -354 6 -781 6 -676 0 -776 -2 -787 -15z"/>
</g>
</svg>
